<!DOCTYPE svg PUBLIC "-//W3C//DTD SVG 1.1//EN" "http://www.w3.org/Graphics/SVG/1.1/DTD/svg11.dtd">
<!-- Uploaded to: SVG Repo, www.svgrepo.com, Transformed by: SVG Repo Mixer Tools -->
<svg fill="rgb(52,211,153)" height="800px" width="800px" version="1.1" id="Layer_1" xmlns="http://www.w3.org/2000/svg" xmlns:xlink="http://www.w3.org/1999/xlink" viewBox="0 0 490.667 490.667" xml:space="preserve" stroke="rgb(52,211,153)">
<g id="SVGRepo_bgCarrier" stroke-width="0"/>
<g id="SVGRepo_tracerCarrier" stroke-linecap="round" stroke-linejoin="round"/>
<g id="SVGRepo_iconCarrier"> <g> <g> <g> <path d="M142.955,217.067c-5.909-0.555-11.115,3.584-11.776,9.429l-6.869,62.315l-35.797-51.477 c-3.349-4.843-10.027-6.037-14.848-2.667c-4.843,3.349-6.037,10.005-2.667,14.848l52.032,74.816 c2.048,2.901,5.333,4.565,8.768,4.565c0.875,0,1.749-0.107,2.624-0.299c4.309-1.109,7.488-4.736,7.979-9.173l9.984-90.581 C153.045,222.976,148.8,217.707,142.955,217.067z"/> <path d="M462.827,209.067c-7.552-5.568-16.981-12.523-18.219-17.109c-1.344-5.035,3.456-16.128,7.339-25.024 c6.635-15.296,13.504-31.104,5.888-44.288c-7.723-13.355-25.003-15.296-41.728-17.173c-9.515-1.067-21.376-2.389-24.939-5.952 c-3.563-3.563-4.885-15.403-5.952-24.939c-1.877-16.725-3.84-34.005-17.173-41.728c-13.205-7.68-28.992-0.768-44.267,5.888 c-8.875,3.861-19.947,8.725-25.024,7.339c-4.608-1.216-11.563-10.645-17.131-18.219C272,14.805,261.077,0,245.333,0 s-26.667,14.805-36.267,27.84c-5.568,7.552-12.523,16.981-17.109,18.219c-5.035,1.323-16.128-3.477-25.024-7.339 c-15.275-6.635-31.083-13.525-44.288-5.888c-13.355,7.723-15.296,25.003-17.173,41.728c-1.067,9.515-2.389,21.376-5.952,24.939 c-3.563,3.563-15.403,4.885-24.939,5.952c-16.725,1.877-34.005,3.84-41.728,17.173c-7.637,13.163-0.768,28.971,5.888,44.267 c3.861,8.896,8.683,19.968,7.339,25.024c-1.216,4.608-10.645,11.563-18.219,17.131C14.805,218.667,0,229.589,0,245.333 S14.805,272,27.84,281.6c7.552,5.568,16.981,12.523,18.219,17.109c1.344,5.035-3.456,16.128-7.339,25.024 c-6.635,15.296-13.504,31.104-5.888,44.288c7.723,13.355,25.003,15.296,41.728,17.173c9.515,1.067,21.376,2.389,24.939,5.952 c3.563,3.563,4.885,15.424,5.952,24.939c1.877,16.725,3.819,34.005,17.152,41.728c13.184,7.637,28.992,0.768,44.288-5.888 c8.875-3.861,19.947-8.683,25.024-7.339c4.608,1.216,11.563,10.645,17.131,18.219c9.621,13.056,20.544,27.861,36.288,27.861 s26.667-14.805,36.288-27.84c5.568-7.552,12.523-16.981,17.109-18.219c5.013-1.344,16.107,3.456,25.024,7.339 c15.296,6.635,31.061,13.525,44.288,5.888c13.355-7.723,15.296-25.003,17.173-41.728c1.045-9.536,2.389-21.376,5.931-24.939 c3.541-3.563,15.403-4.885,24.939-5.952c16.725-1.877,34.005-3.84,41.728-17.173c7.637-13.163,0.768-28.971-5.888-44.267 c-3.861-8.896-8.683-19.968-7.339-25.024c1.216-4.608,10.645-11.563,18.219-17.131c13.056-9.621,27.861-20.544,27.861-36.288 S475.861,218.667,462.827,209.067z M450.176,264.448c-11.307,8.341-23.019,16.96-26.176,28.779 c-3.285,12.245,2.645,25.877,8.384,39.061c3.669,8.448,9.216,21.205,6.997,25.067c-2.325,4.032-16.363,5.611-25.643,6.656 c-14.165,1.6-28.821,3.243-37.653,12.075s-10.453,23.467-12.053,37.632c-1.045,9.28-2.624,23.317-6.656,25.643 c-3.861,2.261-16.64-3.328-25.088-6.997c-13.184-5.739-26.795-11.669-39.061-8.384c-11.819,3.157-20.437,14.869-28.779,26.176 c-5.653,7.616-14.144,19.179-19.115,19.179s-13.483-11.541-19.115-19.179c-8.341-11.307-16.96-23.019-28.779-26.176 c-2.432-0.661-4.907-0.939-7.424-0.939c-10.197,0-21.056,4.715-31.616,9.365c-8.469,3.669-21.269,9.216-25.088,6.997 c-4.032-2.347-5.611-16.363-6.635-25.643c-1.6-14.165-3.243-28.821-12.075-37.653c-8.832-8.832-23.488-10.475-37.653-12.075 c-9.28-1.045-23.317-2.624-25.643-6.656c-2.24-3.861,3.328-16.64,6.997-25.088c5.717-13.184,11.648-26.816,8.384-39.061 c-3.157-11.819-14.869-20.437-26.176-28.779c-7.616-5.653-19.179-14.165-19.179-19.115s11.563-13.461,19.136-19.093 c11.307-8.341,23.019-16.96,26.176-28.779c3.285-12.245-2.645-25.877-8.384-39.061c-3.669-8.448-9.216-21.205-6.997-25.067 c2.347-4.032,16.363-5.611,25.643-6.656c14.165-1.6,28.821-3.243,37.653-12.075c8.832-8.832,10.475-23.488,12.075-37.653 c1.045-9.28,2.624-23.317,6.656-25.643c3.861-2.219,16.64,3.328,25.088,6.997c13.184,5.739,26.773,11.627,39.061,8.384 c11.819-3.157,20.437-14.869,28.779-26.176c5.653-7.616,14.165-19.179,19.115-19.179s13.461,11.563,19.115,19.136 c8.341,11.307,16.96,23.019,28.779,26.176c12.267,3.328,25.877-2.624,39.061-8.384c8.448-3.669,21.205-9.237,25.067-6.997 c4.032,2.347,5.611,16.363,6.656,25.643c1.6,14.165,3.243,28.821,12.075,37.653c8.832,8.832,23.488,10.475,37.653,12.075 c9.28,1.045,23.317,2.624,25.643,6.656c2.24,3.861-3.328,16.64-6.997,25.088c-5.717,13.184-11.648,26.816-8.384,39.061 c3.157,11.819,14.869,20.437,26.176,28.779c7.616,5.653,19.179,14.144,19.179,19.115S457.813,258.816,450.176,264.448z"/> <path d="M240.043,224.64c-4.352-17.067-21.781-27.392-38.912-23.104c-17.067,4.331-27.456,21.781-23.104,38.891l10.517,41.344 c3.691,14.464,16.747,24.128,31.04,24.128c2.603,0,5.248-0.32,7.872-1.024c8.277-2.112,15.232-7.317,19.605-14.656 c4.373-7.339,5.611-15.957,3.499-24.235L240.043,224.64z M228.715,279.339c-1.451,2.453-3.776,4.181-6.528,4.885 c-5.717,1.472-11.52-2.005-12.971-7.701l-10.496-41.344c-1.451-5.696,2.005-11.52,7.701-12.971 c0.875-0.235,1.749-0.341,2.624-0.341c4.757,0,9.131,3.221,10.325,8.043l10.517,41.365 C230.592,274.027,230.165,276.885,228.715,279.339z"/> <path d="M408.277,236.928l-31.019,7.872l-5.248-20.693l10.325-2.624c5.717-1.429,9.152-7.232,7.701-12.949 c-1.429-5.717-7.317-9.195-12.949-7.701l-10.347,2.645l-5.248-20.693l31.019-7.893c5.696-1.429,9.152-7.232,7.701-12.949 c-1.429-5.717-7.36-9.152-12.949-7.701l-41.344,10.517c-2.752,0.683-5.099,2.453-6.549,4.885 c-1.451,2.411-1.877,5.333-1.173,8.064l21.035,82.688c1.216,4.843,5.568,8.043,10.325,8.043c0.875,0,1.749-0.107,2.624-0.341 l41.344-10.517c5.696-1.429,9.152-7.232,7.701-12.949C419.797,238.912,413.909,235.435,408.277,236.928z"/> <path d="M314.88,172.629l-62.016,15.765c-5.696,1.429-9.152,7.232-7.701,12.949c1.216,4.843,5.568,8.043,10.325,8.043 c0.875,0,1.771-0.085,2.645-0.32l20.672-5.269l18.389,72.363c1.216,4.843,5.568,8.043,10.325,8.043 c0.875,0,1.771-0.107,2.624-0.341c5.696-1.429,9.152-7.232,7.701-12.949l-18.389-72.363l20.672-5.269 c5.696-1.429,9.152-7.232,7.701-12.949C326.4,174.613,320.512,171.157,314.88,172.629z"/> </g> </g> </g> </g>
</svg>